<mxfile host="app.diagrams.net" modified="2023-08-25T22:36:14.448Z" agent="Mozilla/5.0 (Macintosh; Intel Mac OS X 10.15; rv:109.0) Gecko/20100101 Firefox/116.0" etag="o5BlxmlvJWK_9Pc5ZrAV" version="21.2.4" type="device">
  <diagram name="Page-1" id="kIWTYXyLH7ZoiCDWMPKE">
    <mxGraphModel dx="954" dy="559" grid="1" gridSize="10" guides="1" tooltips="1" connect="1" arrows="1" fold="1" page="1" pageScale="1" pageWidth="850" pageHeight="1100" math="0" shadow="0">
      <root>
        <mxCell id="0" />
        <mxCell id="1" parent="0" />
        <mxCell id="SrscX44y6WukDTvQ9Hl_-6" style="edgeStyle=orthogonalEdgeStyle;rounded=0;orthogonalLoop=1;jettySize=auto;html=1;exitX=0;exitY=0.5;exitDx=0;exitDy=0;" edge="1" parent="1" source="SrscX44y6WukDTvQ9Hl_-1" target="SrscX44y6WukDTvQ9Hl_-4">
          <mxGeometry relative="1" as="geometry" />
        </mxCell>
        <mxCell id="SrscX44y6WukDTvQ9Hl_-7" style="edgeStyle=orthogonalEdgeStyle;rounded=0;orthogonalLoop=1;jettySize=auto;html=1;exitX=1;exitY=0.25;exitDx=0;exitDy=0;entryX=0;entryY=0.5;entryDx=0;entryDy=0;startArrow=classic;startFill=1;" edge="1" parent="1" source="SrscX44y6WukDTvQ9Hl_-1" target="SrscX44y6WukDTvQ9Hl_-2">
          <mxGeometry relative="1" as="geometry" />
        </mxCell>
        <mxCell id="SrscX44y6WukDTvQ9Hl_-8" style="edgeStyle=orthogonalEdgeStyle;rounded=0;orthogonalLoop=1;jettySize=auto;html=1;exitX=1;exitY=0.75;exitDx=0;exitDy=0;entryX=0;entryY=0.5;entryDx=0;entryDy=0;startArrow=classic;startFill=1;" edge="1" parent="1" source="SrscX44y6WukDTvQ9Hl_-1" target="SrscX44y6WukDTvQ9Hl_-3">
          <mxGeometry relative="1" as="geometry" />
        </mxCell>
        <mxCell id="SrscX44y6WukDTvQ9Hl_-1" value="Arm Selector" style="rounded=0;whiteSpace=wrap;html=1;" vertex="1" parent="1">
          <mxGeometry x="290" y="180" width="120" height="60" as="geometry" />
        </mxCell>
        <mxCell id="SrscX44y6WukDTvQ9Hl_-2" value="Experiment Parameters" style="rounded=0;whiteSpace=wrap;html=1;" vertex="1" parent="1">
          <mxGeometry x="490" y="120" width="120" height="60" as="geometry" />
        </mxCell>
        <mxCell id="SrscX44y6WukDTvQ9Hl_-3" value="Reward Predictor" style="rounded=0;whiteSpace=wrap;html=1;" vertex="1" parent="1">
          <mxGeometry x="490" y="250" width="120" height="60" as="geometry" />
        </mxCell>
        <mxCell id="SrscX44y6WukDTvQ9Hl_-5" style="edgeStyle=orthogonalEdgeStyle;rounded=0;orthogonalLoop=1;jettySize=auto;html=1;exitX=1;exitY=0.25;exitDx=0;exitDy=0;entryX=0;entryY=0.25;entryDx=0;entryDy=0;" edge="1" parent="1" source="SrscX44y6WukDTvQ9Hl_-4" target="SrscX44y6WukDTvQ9Hl_-1">
          <mxGeometry relative="1" as="geometry" />
        </mxCell>
        <mxCell id="SrscX44y6WukDTvQ9Hl_-4" value="Jackpot SDK" style="rounded=0;whiteSpace=wrap;html=1;" vertex="1" parent="1">
          <mxGeometry x="80" y="180" width="120" height="60" as="geometry" />
        </mxCell>
        <mxCell id="SrscX44y6WukDTvQ9Hl_-10" value="ExperimentId&lt;br&gt;Context Data" style="text;html=1;strokeColor=none;fillColor=none;align=center;verticalAlign=middle;whiteSpace=wrap;rounded=0;" vertex="1" parent="1">
          <mxGeometry x="200" y="160" width="80" height="30" as="geometry" />
        </mxCell>
        <mxCell id="SrscX44y6WukDTvQ9Hl_-11" value="Arm selected" style="text;html=1;strokeColor=none;fillColor=none;align=center;verticalAlign=middle;whiteSpace=wrap;rounded=0;" vertex="1" parent="1">
          <mxGeometry x="200" y="210" width="80" height="30" as="geometry" />
        </mxCell>
      </root>
    </mxGraphModel>
  </diagram>
</mxfile>
